<svg width="37" height="37" viewBox="0 0 37 37" fill="none" xmlns="http://www.w3.org/2000/svg">
<path d="M23.8344 33.0494L23.8344 33.0493C23.5588 32.3962 23.4057 31.6538 23.4057 30.8278C23.4057 29.7353 24.222 28.8333 25.2761 28.6998L25.2763 28.6998C25.3654 28.6885 25.4562 28.6826 25.5484 28.6826H34.3573C35.5402 28.6826 36.5 29.6427 36.5 30.8278C36.5 32.6466 35.7584 34.0793 34.5514 35.0493C33.3533 36.0116 31.7216 36.5 29.9529 36.5C28.1842 36.5 26.5525 36.0116 25.3544 35.0493C24.9284 34.7068 24.5628 34.3089 24.2673 33.8602L24.2673 33.8601C24.1003 33.6066 23.9553 33.3361 23.8344 33.0494ZM34.741 17.6318C34.741 18.2628 34.707 18.8857 34.6407 19.4987C33.5898 18.0471 31.8821 17.102 29.9529 17.102C28.8457 17.102 27.8106 17.4137 26.9311 17.9538C26.9318 17.8467 26.9321 17.7393 26.9321 17.6318C26.9321 16.8229 26.9133 16.0242 26.8764 15.2387L26.8765 15.2387L26.8761 15.2326L26.839 14.6054L34.4749 14.6045C34.6498 15.5868 34.741 16.5985 34.741 17.6318ZM26.9295 22.9185L26.9294 22.9139L26.9293 22.8923C26.9293 21.2203 28.2834 19.8654 29.9529 19.8654C31.6223 19.8654 32.9764 21.2203 32.9764 22.8923L32.9763 22.9139L32.9763 22.9185C32.9687 23.8263 32.5624 24.6384 31.9223 25.1892C31.393 25.6445 30.7055 25.9192 29.9529 25.9192C29.2 25.9192 28.5124 25.6445 27.9831 25.1889L27.983 25.1888C27.3433 24.6383 26.937 23.8262 26.9295 22.9185ZM0.766201 14.6045L8.39857 14.6054C8.3393 15.594 8.30891 16.6046 8.30891 17.6318C8.30891 19.1085 8.37172 20.5508 8.49286 21.943L8.49283 21.943L8.49338 21.9486L8.54002 22.4228H1.17788C0.736672 20.9029 0.5 19.2954 0.5 17.6318C0.5 16.5985 0.591307 15.5868 0.766201 14.6045ZM23.7264 1.61649C28.0813 3.28103 31.5839 6.67497 33.395 10.9592L26.4804 10.9597C25.9639 7.29206 25.0191 4.05761 23.7264 1.61649ZM8.76246 10.9597L1.84613 10.9592C3.65717 6.67501 7.15979 3.28104 11.5147 1.61648C10.2622 3.98161 9.3374 7.08946 8.81135 10.6102L8.81133 10.6102L8.81068 10.6148L8.76246 10.9597ZM15.0072 32.4808C14.1181 30.9496 13.3291 28.7409 12.7753 26.0678H22.4658C22.3827 26.4692 22.2942 26.8604 22.2007 27.2407C21.2433 28.1359 20.644 29.4122 20.644 30.8278C20.644 31.1026 20.656 31.3731 20.6796 31.6389C20.185 32.6596 19.6572 33.4464 19.1287 33.9766C18.5767 34.5303 18.0669 34.7635 17.6206 34.7635C17.2461 34.7635 16.8282 34.6004 16.3746 34.2184C15.92 33.8357 15.4564 33.2544 15.0072 32.4808ZM11.5147 33.647C7.776 32.2176 4.66601 29.5148 2.71469 26.0681L9.04824 26.0678C9.59503 29.0052 10.4322 31.603 11.5147 33.647ZM12.0545 14.6044H23.1887C23.2546 15.5866 23.2895 16.598 23.2895 17.6318C23.2895 19.092 23.22 20.5079 23.0915 21.8591L23.031 22.4228H12.207C12.042 20.9035 11.9516 19.2967 11.9516 17.6318C11.9516 16.7355 11.9778 15.8558 12.0278 14.9973L12.0545 14.6044ZM17.6206 0.5C18.033 0.5 18.499 0.698534 19.0048 1.16737C19.51 1.6357 20.0197 2.34321 20.5039 3.2745C21.4691 5.13098 22.2899 7.79271 22.7855 10.9593H12.4557C12.9369 7.88497 13.7248 5.28458 14.655 3.43535C15.1491 2.45302 15.6726 1.70426 16.1934 1.20778C16.7152 0.710246 17.1964 0.5 17.6206 0.5Z" fill="white" stroke="#F53396"/>
</svg>
